<svg width="60" height="60" viewBox="0 0 60 60" fill="none" xmlns="http://www.w3.org/2000/svg">
<path d="M22.8 44.9L29.1667 38.5333L35.5333 44.9C36.5 45.8667 38.1 45.8667 39.0667 44.9C40.0333 43.9333 40.0333 42.3333 39.0667 41.3667L32.7 35L39.0667 28.6333C40.0333 27.6667 40.0333 26.0667 39.0667 25.1C38.1 24.1333 36.5 24.1333 35.5333 25.1L29.1667 31.4667L22.8 25.1C21.8333 24.1333 20.2333 24.1333 19.2667 25.1C18.3 26.0667 18.3 27.6667 19.2667 28.6333L25.6333 35L19.2667 41.3667C18.3 42.3333 18.3 43.9333 19.2667 44.9C20.2333 45.8667 21.8333 45.8667 22.8 44.9ZM53.3333 0H50L46.6667 0.00026226H43.3333L16.6667 0H13.3333H10H6.66667C2.96667 0 0.0333333 3 0.0333333 6.66667L0 53.3333C0 57 2.96667 60 6.66667 60H53.3333C57 60 60 57 60 53.3333V6.66667C60 3 57 0 53.3333 0ZM50 53.3333H10C8.16667 53.3333 6.66667 51.8333 6.66667 50V16.6667H53.3333V50C53.3333 51.8333 51.8333 53.3333 50 53.3333Z" fill="#003399"/>
</svg>
